<svg version="1.0" xmlns="http://www.w3.org/2000/svg"
     width="512.000000pt" height="512.000000pt" viewBox="0 0 512.000000 512.000000"
     preserveAspectRatio="xMidYMid meet">
    <rect x="40" y="40" width="400" height="400" fill="#ffffff"/>
    <g transform="translate(0.000000,512.000000) scale(0.100000,-0.100000)"
       fill="#000000" stroke="none">
        <path d="M1020 5115 c-8 -2 -49 -9 -90 -15 -145 -24 -308 -91 -444 -182 -78
-53 -231 -206 -284 -284 -88 -131 -153 -287 -183 -439 -21 -104 -21 -3166 0
-3270 96 -484 478 -845 966 -915 95 -13 3055 -13 3150 0 254 36 501 162 671
341 163 173 270 395 304 634 13 95 13 3055 0 3150 -17 120 -49 226 -101 334
-152 319 -421 537 -769 624 -85 21 -93 21 -1645 23 -858 1 -1567 1 -1575 -1z
m2842 -1696 c63 -45 89 -161 49 -224 -39 -63 -882 -1015 -913 -1032 -19 -10
-54 -17 -83 -16 -46 0 -77 16 -412 207 -200 113 -366 206 -370 206 -5 -1 -147
-188 -318 -416 -170 -229 -324 -427 -342 -441 -89 -69 -227 -27 -269 82 -35
93 -43 81 379 641 261 347 393 515 415 528 22 12 53 19 87 19 51 0 69 -9 421
-211 300 -172 371 -209 383 -199 8 7 180 201 382 433 202 231 379 426 392 433
62 33 144 29 199 -10z"/>
    </g>
</svg>
